<?xml version="1.0" encoding="utf-8"?>
<!-- Generator: Adobe Illustrator 19.2.1, SVG Export Plug-In . SVG Version: 6.00 Build 0)  -->
<svg xmlns="http://www.w3.org/2000/svg" xmlns:xlink="http://www.w3.org/1999/xlink" version="1.1" id="heartcutscene" x="0px" y="0px" viewBox="0 0 200.4891 219.3318" enable-background="new 0 0 200.4891 219.3318" xml:space="preserve" width="512" height="512">
<g>
	<polygon fill="#E65F58" points="38.1341,67.3206 63.9139,60.4129 47.5831,44.0818 21.8031,50.9895  "/>
	<polygon fill="#E4AD40" points="16.4891,83.3318 16.4891,103.3318 38.8329,103.3318 58.8329,83.3318  "/>
	<path fill="#E65F58" d="M71.3172,56.5037c0.4812,0.4814,0.762,1.0635,0.9468,1.6719l23.197-6.2158L79.1305,35.6297l-22.6252,6.062   L71.3172,56.5037z"/>
	<path fill="#E4AD40" d="M69.8929,83.3318c-0.1589,0.2559-0.2776,0.5303-0.4995,0.752l-19.248,19.248h28.6875l20-20H69.8929z"/>
	<path fill="#E4AD40" d="M109.8929,83.3318c-0.1589,0.2559-0.2776,0.5303-0.4995,0.752l-19.248,19.248h28.6875l20-20H109.8929z"/>
	<path fill="#E65F58" d="M135.3172,40.5037c0.1946,0.1943,0.2917,0.4385,0.438,0.6592l22.7996-6.1094l-16.3298-16.3296   l-22.6252,6.062L135.3172,40.5037z"/>
	<path fill="#E4AD40" d="M189.3934,84.0838l-19.248,19.248h22.3438v-20h-2.5962C189.734,83.5877,189.6153,83.8621,189.3934,84.0838z   "/>
	<path fill="#E4AD40" d="M149.8929,83.3318c-0.1589,0.2559-0.2776,0.5303-0.4995,0.752l-19.248,19.248h28.6875l20-20H149.8929z"/>
	<path fill="#E65F58" d="M103.3172,48.5037c0.3386,0.3389,0.5698,0.7373,0.7617,1.147l22.929-6.144l-16.3303-16.3301L88.0523,33.239   L103.3172,48.5037z"/>
	<path fill="#EAEAEA" d="M16.4891,111.3318v100h176v-100H16.4891z M74.0907,198.5974c-1.6133,0.6934-2.9375,0.8145-3.9961,0.6719   c-0.2559,0.0352-0.5254,0.0566-0.8125,0.0566c-0.9004,0-1.957-0.2012-3.1816-0.7285c-9.752-4.1953-38.3984-35.3945-38.3984-48.5137   c0-14.752,12-26.752,26.752-26.752c5.6719,0,11.1094,1.7715,15.6406,5.0469c4.5332-3.2754,9.9727-5.0469,15.6426-5.0469   c14.752,0,26.752,12,26.752,26.752C112.4891,163.199,83.8426,194.4002,74.0907,198.5974z M180.4891,175.3318h-48v-8h48V175.3318z    M180.4891,155.3318h-48v-8h48V155.3318z M180.4891,135.3318h-48v-8h48V135.3318z"/>
	<path fill="#73C9C9" d="M85.7372,131.3318c-4.8164,0-9.3945,1.8242-12.8926,5.1348c-1.543,1.4609-3.957,1.4609-5.5,0   c-3.4961-3.3105-8.0742-5.1348-12.8906-5.1348c-10.3398,0-18.752,8.4121-18.752,18.752c0,9.0039,26.2676,38.2324,33.3359,41.1035   c0.3457-0.0957,0.7011-0.1426,1.0566-0.1426c0.3555,0,0.7109,0.0469,1.0566,0.1426c7.0684-2.8691,33.3379-32.0996,33.3379-41.1035   C104.4891,139.7439,96.077,131.3318,85.7372,131.3318z"/>
	<path fill="#E65F58" d="M167.3172,32.5037c0.0508,0.0508,0.0667,0.1191,0.114,0.1719l16.6477-4.4609l-5.1758-19.3184   l-27.7563,7.437L167.3172,32.5037z"/>
	<path fill="#E65F58" d="M29.2122,69.7112L13.661,54.1599c-0.2478-0.248-0.3884-0.5508-0.5576-0.8394l-4.2041,1.1265l5.1758,19.3203   L29.2122,69.7112z"/>
	<path fill="#314E55" d="M196.4891,75.3318H39.1424L190.0125,34.906c2.1348-0.5723,3.4004-2.7637,2.8281-4.8984l-7.2461-27.0449   c-0.2734-1.0254-0.9453-1.8984-1.8633-2.4297c-0.916-0.5273-2.0078-0.6699-3.0352-0.3984L48.9781,35.427   c-1.0002-0.125-1.9973,0.1313-2.8433,0.7617L2.9657,47.7556c-2.1348,0.5723-3.4004,2.7637-2.8281,4.8984L7.3836,79.701   c0.1851,0.6943,0.6021,1.2686,1.1055,1.7646v25.8662v108c0,2.209,1.791,4,4,4h184c2.209,0,4-1.791,4-4v-108v-28   C200.4891,77.1228,198.6981,75.3318,196.4891,75.3318z M192.4891,103.3318h-22.3438l19.248-19.248   c0.2219-0.2217,0.3406-0.4961,0.4995-0.752h2.5962V103.3318z M130.1454,103.3318l19.248-19.248   c0.2219-0.2217,0.3406-0.4961,0.4995-0.752h28.9399l-20,20H130.1454z M90.1454,103.3318l19.248-19.248   c0.2219-0.2217,0.3406-0.4961,0.4995-0.752h28.9399l-20,20H90.1454z M50.1454,103.3318l19.248-19.248   c0.2219-0.2217,0.3406-0.4961,0.4995-0.752h28.9399l-20,20H50.1454z M16.4891,103.3318v-20h42.3438l-20,20H16.4891z    M47.5831,44.0818l16.3308,16.3311l-25.7798,6.9077L21.8031,50.9895L47.5831,44.0818z M79.1305,35.6297L95.461,51.9597   l-23.197,6.2158c-0.1848-0.6084-0.4656-1.1904-0.9468-1.6719l-14.812-14.812L79.1305,35.6297z M110.6776,27.1765l16.3303,16.3301   l-22.929,6.144c-0.1919-0.4097-0.4231-0.8081-0.7617-1.147L88.0523,33.239L110.6776,27.1765z M142.2249,18.7239l16.3298,16.3296   l-22.7996,6.1094c-0.1462-0.2207-0.2434-0.4648-0.438-0.6592l-15.7175-15.7178L142.2249,18.7239z M184.0789,28.2146   l-16.6477,4.4609c-0.0474-0.0527-0.0632-0.1211-0.114-0.1719l-16.1704-16.1704l27.7563-7.437L184.0789,28.2146z M13.1034,53.3206   c0.1692,0.2886,0.3098,0.5913,0.5576,0.8394l15.5513,15.5513L14.075,73.7674L8.8993,54.4471L13.1034,53.3206z M192.4891,211.3318   h-176v-100h176V211.3318z"/>
	<path fill="#314E55" d="M85.7372,123.3318c-5.6699,0-11.1094,1.7715-15.6426,5.0469c-4.5312-3.2754-9.9688-5.0469-15.6406-5.0469   c-14.752,0-26.752,12-26.752,26.752c0,13.1191,28.6465,44.3184,38.3984,48.5137c1.2246,0.5273,2.2812,0.7285,3.1816,0.7285   c0.2871,0,0.5566-0.0215,0.8125-0.0566c1.0586,0.1426,2.3828,0.0215,3.9961-0.6719c9.752-4.1973,38.3984-35.3984,38.3984-48.5137   C112.4891,135.3318,100.4891,123.3318,85.7372,123.3318z M71.1512,191.1873c-0.3457-0.0957-0.7012-0.1426-1.0566-0.1426   c-0.3555,0-0.7109,0.0469-1.0566,0.1426c-7.0684-2.8711-33.3359-32.0996-33.3359-41.1035c0-10.3398,8.4121-18.752,18.752-18.752   c4.8164,0,9.3945,1.8242,12.8906,5.1348c1.543,1.4609,3.957,1.4609,5.5,0c3.498-3.3105,8.0762-5.1348,12.8926-5.1348   c10.3398,0,18.752,8.4121,18.752,18.752C104.4891,159.0877,78.2196,188.3181,71.1512,191.1873z"/>
	<rect x="132.4891" y="127.3318" fill="#314E55" width="48" height="8"/>
	<rect x="132.4891" y="147.3318" fill="#314E55" width="48" height="8"/>
	<rect x="132.4891" y="167.3318" fill="#314E55" width="48" height="8"/>
</g>
</svg>
